<?xml version="1.0" encoding="UTF-8"?>
<svg version="1.1" xmlns="http://www.w3.org/2000/svg" width="1254" height="1254">
<path d="M0 0 C413.82 0 827.64 0 1254 0 C1254 413.82 1254 827.64 1254 1254 C840.18 1254 426.36 1254 0 1254 C0 840.18 0 426.36 0 0 Z " fill="#FDFAFA" transform="translate(0,0)"/>
<path d="M0 0 C1.3277736 0.29689348 2.66210212 0.5651991 4 0.8125 C8.38596859 1.70022606 12.43104277 3.25463364 16.5625 4.9375 C17.21822998 5.20433594 17.87395996 5.47117188 18.54956055 5.74609375 C21.17108296 6.82050445 23.7861025 7.9084295 26.390625 9.0234375 C31.53595276 11.13595012 36.50308819 11.67333926 42 12 C42 11.34 42 10.68 42 10 C43.0725 9.4225 44.145 8.845 45.25 8.25 C47.712206 6.87665801 49.03828123 5.95406253 50.875 3.75 C53 2 53 2 62 2 C62 32.69 62 63.38 62 95 C58.04 95 54.08 95 50 95 C48.61754279 91.17165695 47.57417175 87.32728892 46.625 83.375 C44.24452223 73.80571624 41.60204442 65.26748379 36.171875 56.9609375 C35 55 35 55 35 53 C34.34 53 33.68 53 33 53 C32.6390625 51.99839844 32.278125 50.99679688 31.90625 49.96484375 C29.93645383 45.38897964 26.91767681 42.12775204 23.5 38.5625 C22.88431152 37.90870361 22.26862305 37.25490723 21.63427734 36.58129883 C17.08964071 31.8636728 12.40794699 28.00403456 6.9140625 24.41796875 C6.28242187 23.95003906 5.65078125 23.48210937 5 23 C5 22.34 5 21.68 5 21 C4.25878906 20.88269531 3.51757812 20.76539063 2.75390625 20.64453125 C0.01728546 20.00404553 -1.6955957 19.16054449 -4.0625 17.6875 C-9.4457482 14.58316021 -15.06221275 12.76176105 -21 11 C-21.7115625 10.7834375 -22.423125 10.566875 -23.15625 10.34375 C-42.12325566 5.05786318 -71.31741415 5.23821359 -88.88671875 14.9140625 C-91.46033085 16.23654709 -94.11032139 17.21630395 -96.8125 18.25 C-119.76117116 27.79756745 -134.73223652 49.86534159 -144 72 C-144.37125 72.86625 -144.7425 73.7325 -145.125 74.625 C-146.76260275 79.06992174 -147.9943824 83.41477289 -148.5 88.125 C-149 92 -149 92 -149.96166992 94.31420898 C-154.5459421 106.17209241 -153.28279998 120.88467981 -153.20581055 133.3659668 C-153.18738404 136.4569515 -153.18530281 139.54763752 -153.18554688 142.63867188 C-153.18063556 144.63281506 -153.17480894 146.62695625 -153.16796875 148.62109375 C-153.16685593 149.53064316 -153.1657431 150.44019257 -153.16459656 151.37730408 C-153.72042047 161.43742774 -153.72042047 161.43742774 -150 170 C-149.5859375 172.6015625 -149.5859375 172.6015625 -149.375 175.625 C-149.26285156 177.12933594 -149.26285156 177.12933594 -149.1484375 178.6640625 C-149.09945312 179.43492187 -149.05046875 180.20578125 -149 181 C-148.34 181 -147.68 181 -147 181 C-146.90203125 181.556875 -146.8040625 182.11375 -146.703125 182.6875 C-146.55359375 183.450625 -146.4040625 184.21375 -146.25 185 C-146.04117188 186.11375 -146.04117188 186.11375 -145.828125 187.25 C-144.89165681 190.35978114 -143.55839382 193.04685307 -142.0703125 195.92529297 C-141.07650606 197.8516997 -140.13561901 199.7936021 -139.2109375 201.75390625 C-132.0515867 216.7131916 -123.08089689 229.68216579 -112 242 C-111.38511719 242.68707031 -110.77023437 243.37414062 -110.13671875 244.08203125 C-98.94571833 255.91404363 -84.57853153 262.93943038 -69 267 C-67.76636719 267.3403125 -67.76636719 267.3403125 -66.5078125 267.6875 C-49.55200169 271.5878782 -30.30253458 269.63571063 -14 264 C-12.97519531 263.68160156 -11.95039062 263.36320312 -10.89453125 263.03515625 C-9.87746094 262.71417969 -8.86039063 262.39320313 -7.8125 262.0625 C-6.78769531 261.74410156 -5.76289062 261.42570312 -4.70703125 261.09765625 C-1.96525889 259.98591306 -1.01720107 259.05313086 1 257 C3.10175486 255.93212725 5.23105961 254.91793117 7.375 253.9375 C27.10888193 244.42317876 41.16303528 227.99913683 53 210 C53.42297363 209.35820801 53.84594727 208.71641602 54.28173828 208.05517578 C56.8987218 204.06435433 59.45668375 200.0382426 62 196 C63.35346756 193.87455465 64.70757765 191.74951825 66.0625 189.625 C67.04200884 188.08355071 68.02131821 186.54197452 69 185 C73.765625 185.7734375 73.765625 185.7734375 75.875 187.8125 C77 190 77 190 76.74609375 191.8203125 C71.20709997 208.00229432 58.02845063 223.60934468 48.50195312 237.75878906 C46.71578347 240.42410724 44.9436161 243.09850678 43.171875 245.7734375 C35.54119934 257.28391906 27.82853144 268.6867803 19.66210938 279.82470703 C19.21287109 280.4432959 18.76363281 281.06188477 18.30078125 281.69921875 C17.88868408 282.26342529 17.47658691 282.82763184 17.05200195 283.40893555 C15.68333916 285.47892288 14.89667975 287.69425206 14 290 C13.00537884 291.00535006 12.00460874 292.00463008 11 293 C10.04231425 294.28598172 9.1159215 295.59561338 8.21484375 296.921875 C7.68938965 297.69233154 7.16393555 298.46278809 6.62255859 299.2565918 C6.06648926 300.0794165 5.51041992 300.90224121 4.9375 301.75 C4.35822754 302.60182861 3.77895508 303.45365723 3.18212891 304.33129883 C-0.69348051 310.04005335 -4.52968008 315.77450012 -8.34350586 321.5246582 C-11.22482503 325.86135229 -14.16299787 330.15560534 -17.125 334.4375 C-21.82816196 341.24013575 -26.42238156 348.11237718 -31 355 C-35.60393837 361.92508388 -40.21979648 368.83927546 -44.9375 375.6875 C-45.36981934 376.3155957 -45.80213867 376.94369141 -46.24755859 377.59082031 C-48.35818037 380.64858867 -50.48679581 383.69238723 -52.63671875 386.72265625 C-53.05638916 387.31796143 -53.47605957 387.9132666 -53.90844727 388.52661133 C-55.04074854 390.13064799 -56.18024625 391.72959795 -57.3203125 393.328125 C-58.79303382 395.67077938 -59.57566723 397.29970055 -60 400 C-60.99 400 -61.98 400 -63 400 C-63 399.34 -63 398.68 -63 398 C-63.99 397.67 -64.98 397.34 -66 397 C-66.33 396.01 -66.66 395.02 -67 394 C-67.66 393.67 -68.32 393.34 -69 393 C-70.01351664 391.34151823 -71.01120795 389.67334039 -72 388 C-73.30135125 386.30824337 -74.63755204 384.64295195 -76 383 C-76.79535156 382.03835938 -77.59070313 381.07671875 -78.41015625 380.0859375 C-80.15619946 377.99762445 -81.91572311 375.92142043 -83.68359375 373.8515625 C-88.72314852 367.94947028 -93.61114051 361.98609287 -98.30273438 355.80297852 C-101.87129833 351.1174766 -105.63364986 346.6119734 -109.42578125 342.10546875 C-113.65702826 337.04002903 -117.67999609 331.80692798 -121.7421875 326.60595703 C-128.8141836 317.57653344 -136.10372996 308.72131542 -143.40234375 299.875 C-149.65701385 292.29302094 -155.89073353 284.70008202 -162 277 C-166.15409126 271.78440051 -170.32924582 266.58915509 -174.5625 261.4375 C-178.45660032 256.68549118 -182.28130901 251.89058616 -186 247 C-186.50917969 246.33742188 -187.01835937 245.67484375 -187.54296875 244.9921875 C-191 240.36344538 -191 240.36344538 -191 237 C-191.598125 236.731875 -192.19625 236.46375 -192.8125 236.1875 C-194.99847854 235.00082594 -196.41332594 233.90400887 -198 232 C-198 231.34 -198 230.68 -198 230 C-198.66 230 -199.32 230 -200 230 C-202.70740125 225.42542547 -204.91353282 220.89866208 -207 216 C-207.7425 214.824375 -207.7425 214.824375 -208.5 213.625 C-210.29062998 210.49139753 -211.24211218 207.3433008 -212.25390625 203.890625 C-212.83381277 201.8048335 -212.83381277 201.8048335 -215 201 C-215.81978273 198.51372463 -216.508374 196.09993315 -217.125 193.5625 C-217.30385742 192.84126953 -217.48271484 192.12003906 -217.66699219 191.37695312 C-218.95973457 185.86617701 -219.49014366 180.66388225 -219 175 C-219.66 175 -220.32 175 -221 175 C-222.07851991 166.49167629 -222.15314392 158.08475603 -222.13037109 149.52392578 C-222.12502682 147.13697919 -222.13033524 144.75022202 -222.13671875 142.36328125 C-222.14003063 133.85904084 -221.91294901 125.46609439 -221 117 C-220.34 117 -219.68 117 -219 117 C-219.12375 115.205625 -219.12375 115.205625 -219.25 113.375 C-219.2393618 106.57719051 -217.0780654 100.41192547 -215 94 C-214.649375 92.87335938 -214.29875 91.74671875 -213.9375 90.5859375 C-207.07948256 69.86900983 -195.01720933 52.58864043 -180 37 C-179.05447266 35.95972656 -179.05447266 35.95972656 -178.08984375 34.8984375 C-171.58158411 27.94675798 -163.69340633 22.54913966 -156 17 C-155.11441406 16.35289062 -154.22882813 15.70578125 -153.31640625 15.0390625 C-148.90195894 11.93871983 -144.49649026 9.80641227 -139.4453125 7.921875 C-137.20105145 7.07579575 -135.04974751 6.13381824 -132.875 5.125 C-94.47095055 -12.07185754 -39.26438966 -17.70746984 0 0 Z " fill="#040303" transform="translate(698,200)"/>
<path d="M0 0 C2.59962745 0.01835377 5.19889813 0.02050821 7.79858398 0.02026367 C15.89722882 0.03796594 23.86046743 0.17008212 31.90600586 1.20581055 C31.90600586 1.86581055 31.90600586 2.52581055 31.90600586 3.20581055 C32.94499023 3.31538086 33.98397461 3.42495117 35.05444336 3.5378418 C42.08263163 4.32044006 48.80756798 5.16805569 55.54272461 7.4206543 C58.1813653 8.2972936 60.84109748 9.00297539 63.53100586 9.70581055 C68.12016706 10.93959642 72.48935598 12.4558172 76.90600586 14.20581055 C76.90600586 14.86581055 76.90600586 15.52581055 76.90600586 16.20581055 C83.51927344 18.41023307 88.83957299 19.14133244 95.59350586 17.08081055 C99.1046518 15.39599238 99.1046518 15.39599238 101.21850586 12.01831055 C102.10538086 11.09018555 102.99225586 10.16206055 103.90600586 9.20581055 C107.20600586 9.20581055 110.50600586 9.20581055 113.90600586 9.20581055 C113.90600586 38.90581055 113.90600586 68.60581055 113.90600586 99.20581055 C111.38125124 100.46818786 109.5940012 100.30437459 106.78100586 100.26831055 C105.41588867 100.25477539 105.41588867 100.25477539 104.02319336 100.2409668 C102.97518555 100.22356445 102.97518555 100.22356445 101.90600586 100.20581055 C101.11224724 97.53975106 100.32095515 94.87299888 99.53100586 92.20581055 C99.30928711 91.46202148 99.08756836 90.71823242 98.85913086 89.9519043 C97.76474817 86.2503158 96.73145262 82.55364653 95.83178711 78.79956055 C94.93709567 75.32649671 93.78411381 73.21078327 91.90600586 70.20581055 C91.49092773 68.99538086 91.07584961 67.78495117 90.64819336 66.5378418 C88.94546462 61.92146188 86.44842527 58.2790986 83.46850586 54.39331055 C82.67887451 53.35509155 82.67887451 53.35509155 81.87329102 52.29589844 C68.29389672 34.89288569 48.78623961 21.31186984 26.90600586 17.20581055 C26.17148193 17.04024658 25.43695801 16.87468262 24.68017578 16.70410156 C18.71681425 15.39680065 13.06803233 14.85425959 6.96850586 14.89331055 C6.07188232 14.8967749 5.17525879 14.90023926 4.25146484 14.90380859 C-2.08398448 15.00440657 -8.27032806 15.55500682 -14.53149414 16.51831055 C-15.30549561 16.63585693 -16.07949707 16.75340332 -16.87695312 16.87451172 C-21.44463315 17.66308527 -24.94424584 19.07421322 -29.09399414 21.20581055 C-30.41399414 21.20581055 -31.73399414 21.20581055 -33.09399414 21.20581055 C-33.09399414 21.86581055 -33.09399414 22.52581055 -33.09399414 23.20581055 C-34.06336914 23.57706055 -35.03274414 23.94831055 -36.03149414 24.33081055 C-52.72883662 31.57303138 -69.20576735 48.34670439 -76.30883789 65.06518555 C-76.949682 66.8873447 -77.57006095 68.7168505 -78.16821289 70.5534668 C-79.38038974 74.02632788 -81.01704188 77.19042338 -82.75024414 80.4284668 C-94.17410536 104.03999391 -93.74183695 130.20789179 -93.36743164 155.8425293 C-93.3566861 156.6589238 -93.34594055 157.4753183 -93.33486938 158.31645203 C-93.3381365 162.3934352 -93.3381365 162.3934352 -92.09399414 166.20581055 C-91.7827913 168.76458948 -91.58434748 171.32432666 -91.37524414 173.89331055 C-91.22263367 176.2284951 -91.22263367 176.2284951 -90.09399414 178.20581055 C-89.8228861 180.26564226 -89.57726633 182.3288517 -89.34399414 184.39331055 C-88.41878505 191.18281484 -86.61338116 197.19943506 -84.32446289 203.64331055 C-82.92545851 207.69376132 -81.8532841 211.76881209 -80.86743164 215.9362793 C-80.00272957 218.47361213 -78.74116598 220.11060797 -77.09399414 222.20581055 C-76.82586914 223.07206055 -76.55774414 223.93831055 -76.28149414 224.83081055 C-74.56117747 229.72013161 -71.86767563 233.84541105 -69.09399414 238.20581055 C-68.48168945 239.17131836 -67.86938477 240.13682617 -67.23852539 241.1315918 C-58.47404258 254.61944858 -48.47103194 266.42161996 -35.53149414 276.01831055 C-34.91838379 276.47463867 -34.30527344 276.9309668 -33.67358398 277.40112305 C-29.36029187 280.51634228 -24.91665888 282.96888169 -20.09399414 285.20581055 C-19.27672852 285.58866211 -18.45946289 285.97151367 -17.61743164 286.3659668 C4.72409001 295.74940589 33.44552448 295.26881181 55.90600586 286.20581055 C56.23600586 285.54581055 56.56600586 284.88581055 56.90600586 284.20581055 C58.32056062 283.60677478 59.76468528 283.07701087 61.21850586 282.58081055 C82.94814204 274.19937945 97.61501156 254.83457759 106.90600586 234.20581055 C107.84294784 231.40579548 108.59823965 228.64375501 109.26147461 225.76831055 C110.15200022 222.22779659 111.52195762 218.94960337 112.94116211 215.5925293 C115.10328787 210.24411294 116.32459175 205.16372014 116.94116211 199.4362793 C117.02474472 198.71467117 117.10832733 197.99306305 117.19444275 197.24958801 C117.458535 194.964807 117.71424976 192.67920546 117.96850586 190.39331055 C118.22708047 188.08966769 118.48753792 185.78630216 118.75328064 183.48347473 C118.9179353 182.05500599 119.07834718 180.62604069 119.23414612 179.19657898 C119.79371947 174.31809694 119.79371947 174.31809694 120.90600586 173.20581055 C123.10006366 173.08689233 125.29794905 173.03834227 127.49511719 173.01635742 C128.52979378 173.00391747 128.52979378 173.00391747 129.58537292 172.9912262 C131.09186778 172.97377238 132.59839059 172.95862036 134.10492897 172.94544983 C136.50912477 172.9243757 138.91318879 172.89733805 141.31730652 172.86877441 C146.45098717 172.80894944 151.58473451 172.75715187 156.71850586 172.70581055 C163.4125768 172.63789807 170.10658745 172.56607105 176.80053711 172.48706055 C177.61100872 172.47765379 178.42148033 172.46824703 179.25651169 172.45855522 C189.04619601 172.3407247 198.80799443 172.11802941 208.58338928 171.54273987 C216.11252977 171.1038732 223.61477698 171.09329219 231.15600586 171.14331055 C232.51017079 171.14835611 233.86433764 171.15291341 235.21850586 171.15698242 C238.44772485 171.16851535 241.6768373 171.18477889 244.90600586 171.20581055 C243.37478005 174.46154395 242.07131962 176.12566453 239.15600586 178.26831055 C238.35420898 178.87030273 237.55241211 179.47229492 236.72631836 180.0925293 C235.79561523 180.78991211 234.86491211 181.48729492 233.90600586 182.20581055 C231.60493997 183.98555207 229.31736547 185.78223251 227.03100586 187.58081055 C226.13103882 188.28717651 226.13103882 188.28717651 225.21289062 189.0078125 C220.5593247 192.66880174 215.9740676 196.40823652 211.40209961 200.1706543 C208.45892464 202.57033216 205.46417091 204.89532008 202.45678711 207.21362305 C199.86520531 209.23767621 197.30440158 211.29626161 194.74511719 213.36083984 C186.94094109 219.65006996 178.98940844 225.71171149 170.9440918 231.68823242 C168.17243911 233.75203131 165.41189812 235.83045633 162.65087891 237.90844727 C138.63934686 255.96767239 114.19822662 273.89505527 87.73022461 288.21801758 C85.92948285 289.19309803 84.13600013 290.18050987 82.34350586 291.1706543 C71.22656346 297.25666559 59.79609716 301.86691679 47.9831543 306.3996582 C46.46290291 306.98967584 44.95495193 307.61165924 43.45507812 308.25170898 C16.91510094 318.18545392 -20.73249467 313.51982192 -47.09399414 305.20581055 C-48.42356872 304.85778711 -49.75476308 304.51459698 -51.09399414 304.20581055 C-51.09399414 303.54581055 -51.09399414 302.88581055 -51.09399414 302.20581055 C-52.02211914 302.30893555 -52.95024414 302.41206055 -53.90649414 302.51831055 C-59.54424564 302.49575954 -64.16188463 299.68110146 -69.09399414 297.20581055 C-70.35496209 296.59748096 -71.61671625 295.99077905 -72.87915039 295.38549805 C-74.15959787 294.7641306 -75.43955223 294.14174591 -76.71899414 293.51831055 C-77.33524658 293.22110107 -77.95149902 292.9238916 -78.58642578 292.61767578 C-82.97850719 290.43678445 -82.97850719 290.43678445 -84.09399414 288.20581055 C-85.1284668 287.8171582 -85.1284668 287.8171582 -86.18383789 287.4206543 C-90.13739892 285.77024157 -93.26008434 283.35193554 -96.65649414 280.76831055 C-97.36177246 280.23407471 -98.06705078 279.69983887 -98.79370117 279.14941406 C-112.20409817 268.85697234 -125.42367769 256.87644533 -134.09399414 242.20581055 C-134.09399414 241.54581055 -134.09399414 240.88581055 -134.09399414 240.20581055 C-134.75399414 240.20581055 -135.41399414 240.20581055 -136.09399414 240.20581055 C-136.21774414 239.56643555 -136.34149414 238.92706055 -136.46899414 238.26831055 C-136.67524414 237.58768555 -136.88149414 236.90706055 -137.09399414 236.20581055 C-137.75399414 235.87581055 -138.41399414 235.54581055 -139.09399414 235.20581055 C-139.79714231 233.26378227 -140.49709678 231.32050041 -141.17602539 229.36987305 C-142.09118263 227.21243853 -143.11587323 225.75796397 -144.59399414 223.95581055 C-147.60096738 220.0305401 -148.36200471 215.82738964 -149.41040039 211.06518555 C-149.98056387 208.68027318 -150.63590738 206.66962063 -151.65649414 204.45581055 C-152.81770745 201.83045873 -153.56034326 199.59226536 -154.21899414 196.83081055 C-154.7098198 193.41616822 -154.7098198 193.41616822 -156.09399414 192.20581055 C-156.30775928 190.8059458 -156.46422018 189.39719372 -156.59399414 187.98706055 C-156.71774414 186.71282227 -156.71774414 186.71282227 -156.84399414 185.4128418 C-157.01066081 183.6081543 -157.17732747 181.8034668 -157.34399414 179.9987793 C-157.46774414 178.72454102 -157.46774414 178.72454102 -157.59399414 177.42456055 C-157.66618164 176.64016602 -157.73836914 175.85577148 -157.81274414 175.04760742 C-157.9100004 173.19238325 -157.9100004 173.19238325 -159.09399414 172.20581055 C-159.38589272 167.33994962 -159.33813835 162.4548717 -159.34399414 157.58081055 C-159.34566589 156.86072815 -159.34733765 156.14064575 -159.34906006 155.39874268 C-159.35109623 140.7705047 -159.31357923 125.04905796 -154.09399414 111.20581055 C-153.43399414 111.20581055 -152.77399414 111.20581055 -152.09399414 111.20581055 C-152.09012695 110.3840332 -152.09012695 110.3840332 -152.08618164 109.5456543 C-151.67258502 101.06692353 -148.51469222 93.83612445 -145.09399414 86.20581055 C-144.63895508 85.18229492 -144.18391602 84.1587793 -143.71508789 83.10424805 C-137.00991443 68.9297788 -127.60928228 56.7372173 -117.09399414 45.20581055 C-116.08079102 44.08432617 -116.08079102 44.08432617 -115.04711914 42.94018555 C-103.7596028 31.07382222 -83.4092365 12.82083329 -66.71118164 12.04956055 C-65.41567383 12.1269043 -65.41567383 12.1269043 -64.09399414 12.20581055 C-64.09399414 11.54581055 -64.09399414 10.88581055 -64.09399414 10.20581055 C-62.40767423 9.57763351 -60.71986963 8.95344162 -59.03149414 8.33081055 C-57.6219043 7.80874023 -57.6219043 7.80874023 -56.18383789 7.27612305 C-50.2831939 5.23215787 -44.67946777 3.90277753 -38.46899414 3.20581055 C-36.5624707 2.98924805 -36.5624707 2.98924805 -34.61743164 2.76831055 C-33.91110596 2.68814697 -33.20478027 2.6079834 -32.47705078 2.52539062 C-30.76659788 2.29601015 -29.06260336 2.01636389 -27.36523438 1.70458984 C-18.20675093 0.06203178 -9.27091898 -0.06764529 0 0 Z " fill="#040404" transform="translate(370.093994140625,453.794189453125)"/>
<path d="M0 0 C4.30463711 0.85913755 5.48263714 2.3383813 8 6 C8.76133605 7.36875579 9.51024802 8.74445952 10.25 10.125 C12.78836768 14.83237536 15.83498657 19.04676423 19.03515625 23.32421875 C22.65317319 28.25133923 25.90771632 33.40684733 29.1875 38.5625 C32.89184903 44.35510383 36.75104871 50.02200987 40.6875 55.66015625 C44.45427072 61.07408567 48.07946277 66.58376367 51.72509766 72.07958984 C53.85343003 75.28553822 55.98951146 78.48631581 58.125 81.6875 C60.38001792 85.0678702 62.6345818 88.44845403 64.87890625 91.8359375 C75.45003893 107.77254789 86.2601448 123.52476301 97.52734375 138.97753906 C104.23021019 148.18286824 110.7398205 157.48671413 117 167 C117.75539063 168.0209375 118.51078125 169.041875 119.2890625 170.09375 C121 173 121 173 121.08203125 175.046875 C119.43577182 178.01846242 117.19717666 179.97633267 114.6875 182.25 C113.72199219 183.14203125 112.75648438 184.0340625 111.76171875 184.953125 C109 187 109 187 105 187 C104.63390625 186.2471875 104.2678125 185.494375 103.890625 184.71875 C92.4471972 162.2678345 72.3325378 137.96461919 48 129 C47.175 128.525625 46.35 128.05125 45.5 127.5625 C41.0251249 125.5647879 36.51425431 124.65384328 31.73046875 123.6484375 C29 123 29 123 28 122 C22.32988976 120.93685433 16.75752955 120.81679666 11 120.8125 C10.13632812 120.80025391 9.27265625 120.78800781 8.3828125 120.77539062 C3.20666368 120.76359089 -1.03269144 121.38653116 -6 123 C-7.78732513 123.31718728 -9.57908695 123.61073652 -11.375 123.875 C-28.19046281 126.84243461 -42.89937761 138.89912431 -52.640625 152.46484375 C-58.62550764 161.20876711 -63.65209874 170.60564546 -66 181 C-66.66 181 -67.32 181 -68 181 C-67.95875 181.680625 -67.9175 182.36125 -67.875 183.0625 C-68.0534363 187.25575314 -69.2419644 191.00559619 -70.73046875 194.921875 C-73.13828615 201.42420422 -73.9043716 207.93959367 -74.6965332 214.80297852 C-75.0585462 217.42385942 -75.56121167 220.00860798 -76.046875 222.609375 C-77.1957309 229.40841163 -77.26147555 236.05638681 -77.1875 242.9375 C-77.17783203 244.81828247 -77.17783203 244.81828247 -77.16796875 246.73706055 C-77.0801576 257.50833294 -76.65794608 268.24963104 -76 279 C-75.34 279 -74.68 279 -74 279 C-73.49803429 281.95801222 -72.99834165 284.91637705 -72.5 287.875 C-72.35691406 288.71675781 -72.21382812 289.55851562 -72.06640625 290.42578125 C-71.93105469 291.23144531 -71.79570313 292.03710938 -71.65625 292.8671875 C-71.53056641 293.61081543 -71.40488281 294.35444336 -71.27539062 295.12060547 C-71 297 -71 297 -71 299 C-70.34 299 -69.68 299 -69 299 C-68.84144531 299.7734375 -68.68289063 300.546875 -68.51953125 301.34375 C-67.22722079 307.11273814 -65.88973194 311.88975649 -62.5078125 316.75 C-60.928001 319.10743893 -59.56388261 321.54896368 -58.20068359 324.03637695 C-49.73520532 339.39867017 -38.31159167 352.22326209 -23 361 C-22.13761719 361.54269531 -21.27523437 362.08539062 -20.38671875 362.64453125 C-17.59418365 364.2304718 -15.16903561 364.63150749 -12 365 C-12 365.66 -12 366.32 -12 367 C-10.948125 367.12375 -9.89625 367.2475 -8.8125 367.375 C-5 368 -5 368 -2.69140625 368.96875 C13.54374228 375.18947455 36.17599817 373.92300427 52.2734375 368.28125 C55.62972671 367.1273057 58.83799965 366.36983082 62.3125 365.6875 C69.20317457 364.0167474 74.39245228 360.20566079 80 356 C80.85078125 355.37222656 81.7015625 354.74445313 82.578125 354.09765625 C86.68876752 350.98745157 90.48874775 347.78845637 94 344 C94.50789062 343.48566406 95.01578125 342.97132813 95.5390625 342.44140625 C103.73149423 333.7439616 109.92400757 323.0447275 113.24609375 311.5859375 C114.00710827 308.97561827 114.95420621 306.50809421 116 304 C116.66 304 117.32 304 118 304 C118.33 303.01 118.66 302.02 119 301 C126.75 300.875 126.75 300.875 129 302 C128.95960134 311.71587817 125.84586779 319.23677886 122 328 C121.43358844 329.31714688 120.86843784 330.6348369 120.3046875 331.953125 C119.87414062 332.95859375 119.44359375 333.9640625 119 335 C118.34 335 117.68 335 117 335 C116.76410156 335.85078125 116.52820313 336.7015625 116.28515625 337.578125 C114.84491667 341.41292704 112.8432596 344.47865921 110.4375 347.75 C109.99422363 348.35980713 109.55094727 348.96961426 109.09423828 349.59790039 C89.92066082 375.58700548 61.46282162 391.23291261 29.7668457 396.54150391 C25.80672038 397.02352577 21.91573619 397.16170444 17.93359375 397.16796875 C17.1776442 397.17129715 16.42169464 397.17462555 15.64283752 397.17805481 C14.04860028 397.18309165 12.45435261 397.18546414 10.86010742 397.18530273 C8.46840138 397.18747197 6.07717053 397.20561453 3.68554688 397.22460938 C-8.50131837 397.26899619 -20.20659052 396.31043073 -32 393 C-33.134375 392.690625 -34.26875 392.38125 -35.4375 392.0625 C-39.66065195 390.80296345 -43.83360915 389.43492832 -48 388 C-49.216875 387.5875 -50.43375 387.175 -51.6875 386.75 C-55.71530597 385.21910627 -59.57379915 383.33744115 -63.4375 381.4375 C-64.06551514 381.13231445 -64.69353027 380.82712891 -65.34057617 380.51269531 C-69.88029348 378.23941304 -69.88029348 378.23941304 -71 376 C-72.69193351 375.30233853 -74.38425586 374.60559578 -76.07910156 373.91503906 C-79.23707362 372.41070769 -81.77451207 370.17128141 -84.375 367.875 C-85.21744263 367.14422241 -85.21744263 367.14422241 -86.0769043 366.39868164 C-94.23590922 359.25182711 -101.47685003 351.67654503 -108 343 C-108.70898438 342.08089844 -109.41796875 341.16179687 -110.1484375 340.21484375 C-122.19145255 323.8405689 -129.77714245 304.86011395 -133.38671875 284.95703125 C-133.69196 282.12511457 -133.69196 282.12511457 -135 281 C-135.88009966 275.39398702 -136.15965497 269.92480382 -136.16796875 264.2578125 C-136.17296135 263.04519241 -136.17296135 263.04519241 -136.17805481 261.80807495 C-136.18308519 260.1088721 -136.18546435 258.40965951 -136.18530273 256.71044922 C-136.18748825 254.13882871 -136.20568288 251.5676386 -136.22460938 248.99609375 C-136.25264542 240.75349557 -136.10517461 233.02327296 -134 225 C-133.67850664 223.37675533 -133.36520968 221.75185221 -133.0625 220.125 C-131.90114573 214.36289611 -130.4996092 208.6827296 -129 203 C-128.68546875 201.72125 -128.3709375 200.4425 -128.046875 199.125 C-123.59558122 181.88516572 -114.46253661 167.08825901 -104.61914062 152.41992188 C-102.79966316 149.70058221 -101.00104988 146.96800954 -99.203125 144.234375 C-92.44202165 133.9852257 -85.55728211 123.86635548 -78.30566406 113.95776367 C-74.94239708 109.35046889 -71.79532687 104.66641404 -68.7890625 99.81640625 C-65.16879922 94.11725815 -61.26555001 88.60402163 -57.421875 83.05419922 C-55.191622 79.83212697 -52.97028542 76.6039458 -50.75 73.375 C-50.30688477 72.73087158 -49.86376953 72.08674316 -49.40722656 71.4230957 C-45.42268109 65.62593157 -41.46073074 59.813451 -37.5 54 C-20.19379375 28.60769688 -20.19379375 28.60769688 -12.6496582 18.10693359 C-8.35601265 12.12436764 -4.17263327 6.06745224 0 0 Z " fill="#050404" transform="translate(629,649)"/>
<path d="M0 0 C2.29055771 -0.00217275 4.58062168 -0.02034252 6.87109375 -0.03930664 C19.81898582 -0.0903747 32.31284043 1.02448523 44.81640625 4.62280273 C46.41883623 5.06448667 48.0217045 5.50458347 49.625 5.94311523 C50.39312012 6.15484375 51.16124023 6.36657227 51.95263672 6.5847168 C56.99543555 7.9375287 62.09381656 9.05962314 67.19140625 10.18530273 C67.19140625 10.84530273 67.19140625 11.50530273 67.19140625 12.18530273 C67.82046875 12.35545898 68.44953125 12.52561523 69.09765625 12.70092773 C74.1723339 14.13773406 78.77487812 15.77793198 83.40234375 18.31811523 C85.30829099 19.24195866 87.12587257 19.73943864 89.19140625 20.18530273 C89.19140625 20.84530273 89.19140625 21.50530273 89.19140625 22.18530273 C95.13140625 22.51530273 101.07140625 22.84530273 107.19140625 23.18530273 C107.52140625 21.86530273 107.85140625 20.54530273 108.19140625 19.18530273 C108.85140625 19.18530273 109.51140625 19.18530273 110.19140625 19.18530273 C110.62453125 18.25717773 110.62453125 18.25717773 111.06640625 17.31030273 C112.19140625 15.18530273 112.19140625 15.18530273 114.19140625 13.18530273 C116.57421875 12.98999023 116.57421875 12.98999023 119.31640625 13.06030273 C120.22648437 13.07834961 121.1365625 13.09639648 122.07421875 13.11499023 C122.77289062 13.13819336 123.4715625 13.16139648 124.19140625 13.18530273 C124.2749382 33.31602136 124.04751659 53.43392402 123.72784424 73.5614624 C123.66599205 77.48488058 123.60655447 81.40833539 123.546875 85.33178711 C123.43066324 92.94966242 123.31168918 100.56749042 123.19140625 108.18530273 C118.57140625 108.18530273 113.95140625 108.18530273 109.19140625 108.18530273 C108.94390625 106.61780273 108.69640625 105.05030273 108.44140625 103.43530273 C106.74060105 94.12878415 103.71783034 85.47847135 99.19140625 77.18530273 C98.76085937 76.34483398 98.3303125 75.50436523 97.88671875 74.63842773 C89.96236428 59.47506837 79.03062632 47.34984193 66.19140625 36.18530273 C65.58554687 35.61811523 64.9796875 35.05092773 64.35546875 34.46655273 C47.23199513 18.70974133 20.10195697 15.20110532 -2.15625 15.75952148 C-13.28677875 16.35651051 -23.49394638 20.25570801 -33.80859375 24.18530273 C-34.55367187 24.4547168 -35.29875 24.72413086 -36.06640625 25.00170898 C-41.20335225 27.05433803 -45.57288024 29.93435336 -50.05859375 33.12280273 C-50.64914551 33.54182861 -51.23969727 33.96085449 -51.84814453 34.39257812 C-54.6823856 36.45752519 -57.12039446 38.49928082 -59.60546875 41.00170898 C-61.80859375 43.18530273 -61.80859375 43.18530273 -63.80859375 43.18530273 C-64.04449219 43.73702148 -64.28039062 44.28874023 -64.5234375 44.85717773 C-66.12713921 47.76236381 -68.16103607 49.95893138 -70.37109375 52.43530273 C-76.3496068 59.36101525 -80.6229377 67.08767598 -84.80859375 75.18530273 C-85.16195801 75.86197998 -85.51532227 76.53865723 -85.87939453 77.23583984 C-87.8956645 81.16611876 -89.58234847 85.02941936 -90.93359375 89.24780273 C-91.26488281 90.27776367 -91.59617187 91.30772461 -91.9375 92.36889648 C-92.94552543 95.62802804 -93.89553625 98.89829574 -94.80859375 102.18530273 C-95.0415918 102.88252441 -95.27458984 103.57974609 -95.51464844 104.2980957 C-97.62748435 110.75722329 -98.52594959 116.92096158 -98.99609375 123.68530273 C-99.07577393 124.75901123 -99.1554541 125.83271973 -99.23754883 126.93896484 C-102.29680453 155.69223683 -102.29680453 155.69223683 -96.80859375 183.18530273 C-96.34505959 185.59341921 -95.93511405 188.0120567 -95.55859375 190.43530273 C-89.63058979 224.7414636 -67.30429645 258.14487182 -39.18359375 278.06030273 C-34.52830275 281.33190522 -30.12008458 283.33166207 -24.80859375 285.18530273 C-23.49657308 285.69154865 -22.18664105 286.20324252 -20.87890625 286.72045898 C-20.22792969 286.9724707 -19.57695313 287.22448242 -18.90625 287.48413086 C-17.59661109 287.99112968 -16.28927177 288.50411118 -14.984375 289.02319336 C6.90687888 297.42131738 34.34783014 294.97522419 55.75683594 286.12475586 C57.25654884 285.44857059 58.74960701 284.75719483 60.23193359 284.04370117 C62.20116544 283.18102747 64.09510464 282.64568079 66.19140625 282.18530273 C66.19140625 281.52530273 66.19140625 280.86530273 66.19140625 280.18530273 C68.29087714 278.75439534 70.39186453 277.43020275 72.56640625 276.12280273 C86.98401553 267.0999822 101.66097598 252.77659353 107.19140625 236.18530273 C108.18140625 236.18530273 109.17140625 236.18530273 110.19140625 236.18530273 C110.29453125 235.17467773 110.39765625 234.16405273 110.50390625 233.12280273 C111.21282478 229.06263295 112.51695527 225.93607292 114.19140625 222.18530273 C114.89631892 219.86323748 115.56353054 217.52937206 116.19140625 215.18530273 C116.56402977 213.87212607 116.93896666 212.55960326 117.31640625 211.24780273 C117.60515625 210.23717773 117.89390625 209.22655273 118.19140625 208.18530273 C119.96296279 208.2995967 121.73366854 208.4271331 123.50390625 208.56030273 C124.98310547 208.6647168 124.98310547 208.6647168 126.4921875 208.77124023 C129.19140625 209.18530273 129.19140625 209.18530273 132.19140625 211.18530273 C132.05863281 212.0940918 131.92585938 213.00288086 131.7890625 213.93920898 C131.01936151 219.32711592 130.32911307 224.72551479 129.62890625 230.12280273 C129.49033203 231.18821289 129.35175781 232.25362305 129.20898438 233.35131836 C128.86940119 235.96259599 128.53021919 238.57392507 128.19140625 241.18530273 C127.53140625 241.18530273 126.87140625 241.18530273 126.19140625 241.18530273 C126.25328125 242.91780273 126.25328125 242.91780273 126.31640625 244.68530273 C126.28520188 254.54588413 126.00580878 266.8403795 120.19140625 275.18530273 C116.14730582 278.73622018 111.19842749 280.61514793 106.3046875 282.76733398 C102.93573777 284.30174898 99.66663563 285.9842441 96.37890625 287.68530273 C89.52579869 291.1786381 82.48183064 293.76073499 75.19140625 296.18530273 C74.06734375 296.57975586 72.94328125 296.97420898 71.78515625 297.38061523 C63.70451814 300.18530273 63.70451814 300.18530273 59.19140625 300.18530273 C59.19140625 300.84530273 59.19140625 301.50530273 59.19140625 302.18530273 C54.65001055 303.81681503 50.11362589 304.87476663 45.37890625 305.74780273 C40.92310967 306.22911257 40.92310967 306.22911257 37.19140625 308.18530273 C29.06226345 309.4223462 20.89654282 309.42525658 12.69140625 309.43530273 C11.96985352 309.43697449 11.24830078 309.43864624 10.50488281 309.44036865 C-6.15950204 309.44266782 -22.56058724 308.0142387 -38.80859375 304.18530273 C-38.80859375 303.52530273 -38.80859375 302.86530273 -38.80859375 302.18530273 C-39.79085937 302.18143555 -39.79085937 302.18143555 -40.79296875 302.17749023 C-48.98865382 301.83021544 -54.75679869 299.21361823 -61.80859375 295.18530273 C-62.90429688 294.57557617 -64 293.96584961 -65.12890625 293.33764648 C-73.31678847 288.69126995 -73.31678847 288.69126995 -75.30078125 286.65014648 C-77.39862814 284.6120828 -79.72418372 283.6638555 -82.37109375 282.43530273 C-87.26284434 280.0449491 -91.61642448 277.41113292 -96.01171875 274.21264648 C-98.74086472 272.23439682 -101.50818055 270.32833864 -104.29443359 268.43212891 C-116.98292779 259.79011086 -129.49496498 250.91621405 -141.49633789 241.33837891 C-146.75201589 237.1693084 -152.18792168 233.27305975 -157.64453125 229.37280273 C-163.61818853 225.08582516 -169.47576007 220.66153926 -175.30859375 216.18530273 C-182.63420916 210.56472381 -190.03915181 205.08207146 -197.54711914 199.70800781 C-203.07557877 195.74206055 -208.47565729 191.63710915 -213.84765625 187.46264648 C-216.73958239 185.23838139 -219.66694858 183.07604629 -222.62109375 180.93530273 C-223.50023437 180.2972168 -224.379375 179.65913086 -225.28515625 179.00170898 C-226.93894256 177.81129005 -228.60020546 176.63117454 -230.26953125 175.46264648 C-231.00429688 174.93799805 -231.7390625 174.41334961 -232.49609375 173.87280273 C-233.13933594 173.42291992 -233.78257812 172.97303711 -234.4453125 172.50952148 C-234.89519531 172.0725293 -235.34507812 171.63553711 -235.80859375 171.18530273 C-235.80859375 170.19530273 -235.80859375 169.20530273 -235.80859375 168.18530273 C-231.83527561 166.06995593 -227.85396203 163.97010495 -223.87109375 161.87280273 C-222.19563477 160.98044922 -222.19563477 160.98044922 -220.48632812 160.07006836 C-214.35227331 156.85013929 -208.45921911 154.13887985 -201.80859375 152.18530273 C-201.80859375 151.52530273 -201.80859375 150.86530273 -201.80859375 150.18530273 C-198.43408657 148.41352912 -195.05890037 146.64305283 -191.68359375 144.87280273 C-190.73226562 144.37329102 -189.7809375 143.8737793 -188.80078125 143.35913086 C-185.04138715 141.38805965 -181.28380624 139.42207135 -177.484375 137.52905273 C-173.6791153 135.6180902 -169.99802558 133.49630755 -166.296875 131.39233398 C-163.80859375 130.18530273 -163.80859375 130.18530273 -160.80859375 130.18530273 C-160.70546875 128.96842773 -160.60234375 127.75155273 -160.49609375 126.49780273 C-159.56516513 118.2243385 -158.20772632 110.31374007 -153.80859375 103.18530273 C-153.25151259 101.5579036 -152.74983904 99.91035197 -152.30859375 98.24780273 C-151.17872696 94.27277917 -149.72205943 90.85915684 -147.80859375 87.18530273 C-147.21842452 85.62537187 -146.63585728 84.06255538 -146.05859375 82.49780273 C-133.67544114 51.30715517 -102.75521542 26.2944354 -72.80859375 13.18530273 C-67.98785642 11.23656858 -63.10511387 9.60778822 -58.12109375 8.12280273 C-53.72293542 6.81412349 -53.72293542 6.81412349 -49.44311523 5.17602539 C-46.77215773 4.17160082 -44.43168055 3.71842158 -41.60546875 3.36889648 C-40.62449219 3.24450195 -39.64351562 3.12010742 -38.6328125 2.99194336 C-37.61832031 2.87012695 -36.60382813 2.74831055 -35.55859375 2.62280273 C-34.06005859 2.43427734 -34.06005859 2.43427734 -32.53125 2.24194336 C-30.54164528 1.99356787 -28.55122932 1.75160532 -26.56005859 1.51611328 C-24.92818857 1.3199124 -23.29751702 1.11230011 -21.67041016 0.87988281 C-14.48131485 -0.0878467 -7.24015565 -0.00076567 0 0 Z " fill="#050505" transform="translate(887.80859375,456.814697265625)"/>
<path d="M0 0 C5.28528576 4.20061891 8.31645566 9.57916743 9.33984375 16.24609375 C9.54526938 21.64467922 8.74234422 25.92010002 5.9375 30.625 C0.97911411 35.93397884 -4.48351136 39.69154851 -11.875 40.125 C-19.37219229 39.89918096 -25.6996586 35.6628207 -31.0625 30.625 C-34.61061784 25.09043591 -33.75670772 17.47469738 -32.6328125 11.2421875 C-30.95134713 5.94868541 -27.49909847 1.91666983 -23.0625 -1.375 C-16.04558023 -3.95698347 -6.42789828 -3.84158904 0 0 Z " fill="#0A0909" transform="translate(895.0625,596.375)"/>
<path d="M0 0 C5.45795685 4.47077856 8.50391567 7.66083197 9.30859375 14.69921875 C9.64696024 22.54316928 8.1634608 27.0827493 3 33 C2.50113281 33.57621094 2.00226562 34.15242188 1.48828125 34.74609375 C0 36 0 36 -3 36 C-3 36.66 -3 37.32 -3 38 C-8.8260767 39.94202557 -14.94821687 39.57180841 -20.8125 37.9375 C-26.4863064 34.48871572 -30.81728749 29.30561391 -33 23 C-33.67440467 16.74302337 -33.72940324 11.29334653 -30 6 C-22.35063755 -3.32945498 -10.75143489 -6.27684927 0 0 Z " fill="#090908" transform="translate(650,333)"/>
<path d="M0 0 C0.886875 0.7425 1.77375 1.485 2.6875 2.25 C3.574375 2.889375 4.46125 3.52875 5.375 4.1875 C9.03632429 7.45300545 10.80895556 10.37663663 11.15625 15.28125 C11.18261082 16.77063649 11.19264546 18.26038913 11.1875 19.75 C11.21585937 20.49636719 11.24421875 21.24273438 11.2734375 22.01171875 C11.28820632 26.1839105 11.08108341 27.76822232 8.3515625 31.109375 C7.47242188 31.81578125 6.59328125 32.5221875 5.6875 33.25 C5.12804687 33.76046875 4.56859375 34.2709375 3.9921875 34.796875 C-1.55053191 39.46123997 -5.87850118 39.66070902 -12.94140625 39.58984375 C-17.93110754 39.08682635 -21.52499778 37.52922271 -25.3125 34.25 C-27.10012237 31.96184336 -28.09083467 29.93766372 -29.3125 27.25 C-29.725 26.610625 -30.1375 25.97125 -30.5625 25.3125 C-32.51335619 19.94764546 -31.58062392 14.33995948 -29.4140625 9.20703125 C-26.6766877 4.34382282 -22.95505431 0.39159467 -17.5 -1.1875 C-11.39482371 -2.2425693 -5.58891699 -2.95263539 0 0 Z " fill="#090908" transform="translate(383.3125,592.75)"/>
<path d="M0 0 C6.38055353 3.49124627 10.21446312 6.70248614 12.3125 13.8125 C12.72178867 18.65574922 13.01890813 24.21832427 11.3125 28.8125 C8.31821639 32.22265634 4.97775274 35.13785611 1.3125 37.8125 C0.6525 37.8125 -0.0075 37.8125 -0.6875 37.8125 C-0.6875 38.4725 -0.6875 39.1325 -0.6875 39.8125 C-3.08402528 39.89389142 -5.47775436 39.95317009 -7.875 40 C-8.88530273 40.03770508 -8.88530273 40.03770508 -9.91601562 40.07617188 C-15.49103566 40.15775753 -18.50712388 38.89355313 -22.48828125 35.09375 C-22.98714844 34.5059375 -23.48601563 33.918125 -24 33.3125 C-24.51175781 32.7246875 -25.02351562 32.136875 -25.55078125 31.53125 C-26.6875 29.8125 -26.6875 29.8125 -26.6875 26.8125 C-27.3475 26.8125 -28.0075 26.8125 -28.6875 26.8125 C-30.49138448 21.40084655 -30.23354246 16.45062737 -28.4375 11.0625 C-22.60603916 0.23264416 -11.67629774 -3.76016368 0 0 Z " fill="#080707" transform="translate(646.6875,884.1875)"/>
<path d="M0 0 C0.33 0 0.66 0 1 0 C1.84496038 11.32578148 2.14940965 22.57858881 2.1328125 33.93359375 C2.13348821 35.58984898 2.13446044 37.24610411 2.13571167 38.90235901 C2.13716993 42.33343472 2.13509108 45.76448404 2.13037109 49.19555664 C2.12460673 53.60056055 2.12800629 58.00550441 2.13394356 62.41050625 C2.13754266 65.81183839 2.13641478 69.21315605 2.13381577 72.6144886 C2.13314816 74.24086578 2.13396911 75.86724427 2.13629532 77.49361992 C2.13881835 79.7476545 2.13498941 82.00158823 2.12939453 84.25561523 C2.12820114 86.17844582 2.12820114 86.17844582 2.12698364 88.14012146 C2 91 2 91 1 92 C-1.01964199 92.07244053 -3.04167124 92.08377188 -5.0625 92.0625 C-6.16722656 92.05347656 -7.27195312 92.04445313 -8.41015625 92.03515625 C-9.26480469 92.02355469 -10.11945313 92.01195312 -11 92 C-11 91.67 -11 91.34 -11 91 C-5.555 90.505 -5.555 90.505 0 90 C0 60.3 0 30.6 0 0 Z " fill="#ADACAC" transform="translate(484,463)"/>
<path d="M0 0 C1.77206192 0.00015919 3.54412846 0.00585754 5.31616211 0.01586914 C6.24698105 0.01728409 7.17779999 0.01869904 8.13682556 0.02015686 C11.12241777 0.02577367 14.10793615 0.03832899 17.09350586 0.05102539 C19.11238499 0.05603823 21.13126529 0.06060151 23.15014648 0.06469727 C28.11046158 0.07574856 33.07072118 0.09302444 38.03100586 0.11352539 C38.03100586 0.44352539 38.03100586 0.77352539 38.03100586 1.11352539 C24.39869051 2.52463382 10.71691529 2.20977989 -2.96899414 2.11352539 C-3.0587854 3.42003052 -3.0587854 3.42003052 -3.15039062 4.75292969 C-3.23361572 5.90704346 -3.31684082 7.06115723 -3.40258789 8.25024414 C-3.48307373 9.38937256 -3.56355957 10.52850098 -3.64648438 11.70214844 C-4.07700829 16.25605502 -4.93414963 20.66268927 -5.96899414 25.11352539 C-6.29899414 25.11352539 -6.62899414 25.11352539 -6.96899414 25.11352539 C-7.06305678 19.53874605 -6.75746434 14.20060711 -6.03149414 8.67602539 C-5.94448242 7.95737305 -5.8574707 7.2387207 -5.76782227 6.49829102 C-4.95750469 0.14179982 -4.95750469 0.14179982 0 0 Z " fill="#4C4A4A" transform="translate(494.968994140625,626.886474609375)"/>
<path d="M0 0 C8.19058286 0.07968785 15.11569203 1.39112657 22.80419922 4.33007812 C19.56419998 5.38498308 17.49185783 5.22154962 14.20654297 4.40820312 C8.87089834 3.24662244 3.81302694 3.02434452 -1.63330078 3.08007812 C-3.00699829 3.08479126 -3.00699829 3.08479126 -4.40844727 3.08959961 C-10.13646538 3.15931077 -15.55909117 3.58883581 -21.13720703 4.99023438 C-23.45499653 5.37286756 -24.9791121 5.04886833 -27.19580078 4.33007812 C-22.86300595 2.74490928 -18.75736312 1.95617492 -14.19580078 1.33007812 C-11.4738177 -1.39190495 -3.66065822 0.02138998 0 0 Z " fill="#595756" transform="translate(378.19580078125,465.669921875)"/>
<path d="M0 0 C0.66 0.33 1.32 0.66 2 1 C-2.88785529 5.98968561 -7.83451223 10.81159065 -13.13671875 15.359375 C-15.88966984 17.78335709 -18.43912123 20.37509926 -21 23 C-21.66 22.67 -22.32 22.34 -23 22 C-15.88313743 13.8464291 -8.50551678 6.70941289 0 0 Z " fill="#363636" transform="translate(784,488)"/>
<path d="M0 0 C0.90234375 0.0721875 1.8046875 0.144375 2.734375 0.21875 C16.81381667 1.23857786 30.89130486 1.097322 45 1 C41.32545266 3.44969822 38.54606125 3.28925053 34.296875 3.265625 C33.54085999 3.26753845 32.78484497 3.2694519 32.00592041 3.27142334 C30.40547351 3.27278395 28.80501552 3.26909615 27.20458984 3.26074219 C24.77285442 3.25010002 22.34186779 3.26061046 19.91015625 3.2734375 C18.35156089 3.27211472 16.79296598 3.26954988 15.234375 3.265625 C14.51433289 3.26967346 13.79429077 3.27372192 13.0524292 3.27789307 C8.30755956 3.23457293 4.45943201 2.46897221 0 1 C0 0.67 0 0.34 0 0 Z " fill="#C8C7C8" transform="translate(346,764)"/>
<path d="M0 0 C0.33 0 0.66 0 1 0 C1.02684679 2.64590014 1.04676357 5.29153096 1.0625 7.9375 C1.07087891 8.69224609 1.07925781 9.44699219 1.08789062 10.22460938 C1.09652441 12.14994313 1.05224333 14.07535581 1 16 C0.67 16.33 0.34 16.66 0 17 C-0.15873955 19.21687994 -0.25133837 21.43855298 -0.31640625 23.66015625 C-0.33718735 24.32462265 -0.35796844 24.98908905 -0.37937927 25.6736908 C-0.44493658 27.80318543 -0.50378785 29.93280668 -0.5625 32.0625 C-0.60567939 33.50326847 -0.64929349 34.94402399 -0.69335938 36.38476562 C-0.80062393 39.9230404 -0.90187371 43.46145869 -1 47 C-1.33 47 -1.66 47 -2 47 C-2.05035186 42.71738088 -2.08615671 38.43492961 -2.10986328 34.15209961 C-2.11977108 32.70252472 -2.13330114 31.25296897 -2.15087891 29.8034668 C-2.27041589 19.67446496 -1.61434205 10.01092271 0 0 Z " fill="#696869" transform="translate(213,579)"/>
<path d="M0 0 C2.27113803 0.14100857 4.54190725 0.28796755 6.8125 0.4375 C8.07707031 0.51871094 9.34164062 0.59992187 10.64453125 0.68359375 C14 1 14 1 17 2 C18.69867188 2.14777936 20.40177489 2.24747066 22.10546875 2.31640625 C23.57983398 2.37924805 23.57983398 2.37924805 25.08398438 2.44335938 C26.62022461 2.50233398 26.62022461 2.50233398 28.1875 2.5625 C29.74114258 2.62727539 29.74114258 2.62727539 31.32617188 2.69335938 C33.8839819 2.79944366 36.44188845 2.90150146 39 3 C39 3.33 39 3.66 39 4 C34.75013521 4.08842548 30.50051254 4.14086428 26.25 4.1875 C24.46916016 4.22520508 24.46916016 4.22520508 22.65234375 4.26367188 C14.65717068 4.32920608 7.64766622 3.33913101 0 1 C0 0.67 0 0.34 0 0 Z " fill="#A5A4A4" transform="translate(877,747)"/>
<path d="M0 0 C-1.30682801 2.88049117 -2.70501003 4.9608743 -4.93359375 7.19921875 C-5.50013672 7.76833984 -6.06667969 8.33746094 -6.65039062 8.92382812 C-7.24013672 9.50583984 -7.82988281 10.08785156 -8.4375 10.6875 C-9.02337891 11.28111328 -9.60925781 11.87472656 -10.21289062 12.48632812 C-11.06463867 13.33420898 -11.06463867 13.33420898 -11.93359375 14.19921875 C-12.44978271 14.71315186 -12.96597168 15.22708496 -13.49780273 15.7565918 C-15 17 -15 17 -18 18 C-16.6489735 14.98984706 -15.13664313 12.88032534 -12.8125 10.546875 C-12.19632813 9.928125 -11.58015625 9.309375 -10.9453125 8.671875 C-10.30335938 8.03765625 -9.66140625 7.4034375 -9 6.75 C-8.35804688 6.1003125 -7.71609375 5.450625 -7.0546875 4.78125 C-6.43851563 4.16765625 -5.82234375 3.5540625 -5.1875 2.921875 C-4.62417969 2.36081055 -4.06085937 1.79974609 -3.48046875 1.22167969 C-2 0 -2 0 0 0 Z " fill="#303030" transform="translate(528,229)"/>
<path d="M0 0 C0.66 0.33 1.32 0.66 2 1 C-3.3250511 7.12627407 -8.72690435 12.83794309 -15 18 C-15 15 -15 15 -13.62304688 13.2824707 C-12.99462891 12.66976318 -12.36621094 12.05705566 -11.71875 11.42578125 C-11.04199219 10.75869141 -10.36523438 10.09160156 -9.66796875 9.40429688 C-8.95253906 8.71400391 -8.23710938 8.02371094 -7.5 7.3125 C-6.42685547 6.2596582 -6.42685547 6.2596582 -5.33203125 5.18554688 C-3.56120423 3.45013639 -1.78376544 1.7220927 0 0 Z " fill="#C6C5C7" transform="translate(586,226)"/>
<path d="M0 0 C0.95777344 0.06058594 1.91554688 0.12117187 2.90234375 0.18359375 C12.93338927 0.81562083 22.96602995 1.41634085 33 2 C33 2.33 33 2.66 33 3 C28.81255925 3.05840224 24.62522435 3.09373166 20.4375 3.125 C19.25607422 3.14175781 18.07464844 3.15851562 16.85742188 3.17578125 C10.84603241 3.2094585 5.65816878 3.11038894 0 1 C0 0.67 0 0.34 0 0 Z " fill="#5C5B5B" transform="translate(629,1020)"/>
<path d="M0 0 C-1.65863505 4.32504836 -4.871041 7.09418825 -8.125 10.25 C-8.68832031 10.80429687 -9.25164062 11.35859375 -9.83203125 11.9296875 C-11.21686028 13.29104485 -12.60783204 14.64614859 -14 16 C-14.66 15.67 -15.32 15.34 -16 15 C-2.63106796 0 -2.63106796 0 0 0 Z " fill="#373636" transform="translate(263,491)"/>
<path d="M0 0 C0.66 0.33 1.32 0.66 2 1 C-6.2095968 10.5344885 -6.2095968 10.5344885 -10 14 C-10.66 14 -11.32 14 -12 14 C-10.41332422 10.09714233 -7.86649519 7.66479018 -4.875 4.75 C-3.96492188 3.85796875 -3.05484375 2.9659375 -2.1171875 2.046875 C-1.41851562 1.37140625 -0.71984375 0.6959375 0 0 Z " fill="#C7C6C7" transform="translate(318,487)"/>
<path d="M0 0 C0.33 0 0.66 0 1 0 C0.91262714 3.0429859 0.80569374 6.08318366 0.6875 9.125 C0.66494141 9.9809375 0.64238281 10.836875 0.61914062 11.71875 C0.40152861 16.86230675 -0.24699152 20.49776092 -3 25 C-3.66 24.67 -4.32 24.34 -5 24 C-4.54625 23.01 -4.0925 22.02 -3.625 21 C-1.07442131 14.32739603 -0.72764373 7.05386394 0 0 Z " fill="#9C9A9B" transform="translate(1013,707)"/>
<path d="M0 0 C9.9 0 19.8 0 30 0 C29.34 1.32 28.68 2.64 28 4 C27.34 3.34 26.68 2.68 26 2 C23.28384136 1.62792646 23.28384136 1.62792646 20.1171875 1.5859375 C18.95058594 1.54726563 17.78398438 1.50859375 16.58203125 1.46875 C15.35871094 1.4378125 14.13539063 1.406875 12.875 1.375 C11.64394531 1.33632813 10.41289063 1.29765625 9.14453125 1.2578125 C6.09650624 1.1633001 3.04849138 1.07774506 0 1 C0 0.67 0 0.34 0 0 Z " fill="#4F4D4E" transform="translate(585,625)"/>
<path d="M0 0 C1.56071552 3.12143105 0.9286118 5.76644107 0 9 C-1.83762891 13.08872432 -3.87982008 17.05140804 -6 21 C-6.66 21 -7.32 21 -8 21 C-7.731875 20.360625 -7.46375 19.72125 -7.1875 19.0625 C-6.23036047 16.59408754 -5.37957164 14.14072056 -4.5625 11.625 C-3.25292959 7.63615544 -1.71219595 3.83205761 0 0 Z " fill="#585757" transform="translate(481,676)"/>
<path d="M0 0 C2.0430177 7.2988455 1.42514321 13.29242787 -2 20 C-2.33 20 -2.66 20 -3 20 C-3.40850553 12.91923749 -1.90420731 6.80074041 0 0 Z " fill="#9E9C9D" transform="translate(282,545)"/>
<path d="M0 0 C1.26026798 2.52053595 0.91874445 3.8542098 0.5625 6.625 C0.40974609 7.85089844 0.40974609 7.85089844 0.25390625 9.1015625 C0.17011719 9.72804688 0.08632813 10.35453125 0 11 C-0.66 11 -1.32 11 -2 11 C-2 14.96 -2 18.92 -2 23 C-2.33 23 -2.66 23 -3 23 C-3.55353075 7.25512528 -3.55353075 7.25512528 0 0 Z " fill="#C4C4C4" transform="translate(479,306)"/>
<path d="M0 0 C0.66 0.99 1.32 1.98 2 3 C1.67 3.33 1.34 3.66 1 4 C0.76518307 6.18292774 0.58636677 8.37203174 0.4375 10.5625 C0.31181641 12.35880859 0.31181641 12.35880859 0.18359375 14.19140625 C0.12300781 15.11824219 0.06242188 16.04507813 0 17 C-2.69734626 12.95398061 -2.43218852 9.74576236 -2 5 C-1 1.9375 -1 1.9375 0 0 Z " fill="#5E5B5B" transform="translate(619,894)"/>
<path d="M0 0 C8.57142857 -0.28571429 8.57142857 -0.28571429 12 2 C11.67 3.32 11.34 4.64 11 6 C11 5.01 11 4.02 11 3 C9.37536158 2.94604522 7.75021459 2.90722805 6.125 2.875 C5.22007812 2.85179687 4.31515625 2.82859375 3.3828125 2.8046875 C0.81193006 2.75675164 0.81193006 2.75675164 -1 5 C-0.67 3.35 -0.34 1.7 0 0 Z " fill="#838281" transform="translate(747,948)"/>
<path d="M0 0 C5.61 0.33 11.22 0.66 17 1 C15 3 15 3 11.3125 3.25 C7.25257007 3.1609339 3.84088735 2.28029578 0 1 C0 0.67 0 0.34 0 0 Z " fill="#B5B2B2" transform="translate(346,764)"/>
<path d="M0 0 C1.41750563 0.11509661 2.83401169 0.24253658 4.25 0.375 C5.03890625 0.44460938 5.8278125 0.51421875 6.640625 0.5859375 C9.14478952 1.02541008 10.86957156 1.61427885 13 3 C13.33 3.99 13.66 4.98 14 6 C12.41375765 5.57316761 10.8310902 5.13303842 9.25 4.6875 C8.36828125 4.44386719 7.4865625 4.20023437 6.578125 3.94921875 C3.94227495 2.97874669 2.14592674 1.78994356 0 0 Z " fill="#555453" transform="translate(921,475)"/>
<path d="M0 0 C1.79240663 0.11389875 3.58394835 0.24147687 5.375 0.375 C6.87160156 0.47941406 6.87160156 0.47941406 8.3984375 0.5859375 C11 1 11 1 13 3 C12.30132813 2.98839844 11.60265625 2.97679687 10.8828125 2.96484375 C9.97273437 2.95582031 9.06265625 2.94679688 8.125 2.9375 C7.22007812 2.92589844 6.31515625 2.91429687 5.3828125 2.90234375 C2.9831415 2.83750743 2.9831415 2.83750743 1 4 C0.34 4.99 -0.32 5.98 -1 7 C-0.67 4.69 -0.34 2.38 0 0 Z " fill="#5B5A5A" transform="translate(1006,665)"/>
<path d="M0 0 C0 0.66 0 1.32 0 2 C-3.57030218 5.17360194 -7.19784004 7 -12 7 C-10.70982586 6.01886757 -9.41780894 5.04015801 -8.125 4.0625 C-7.04605469 3.24458984 -7.04605469 3.24458984 -5.9453125 2.41015625 C-2.62049861 0 -2.62049861 0 0 0 Z " fill="#B5B4B4" transform="translate(332,479)"/>
<path d="M0 0 C-0.75 1.9375 -0.75 1.9375 -2 4 C-4.0625 4.6875 -4.0625 4.6875 -6 5 C-6.33 5.33 -6.66 5.66 -7 6 C-8.99958364 6.04080783 -11.00045254 6.04254356 -13 6 C-10.65890118 4.43926745 -8.43666597 3.13626133 -5.9375 1.875 C-5.24527344 1.52179687 -4.55304688 1.16859375 -3.83984375 0.8046875 C-2 0 -2 0 0 0 Z " fill="#575756" transform="translate(440,733)"/>
<path d="M0 0 C0.66 0.33 1.32 0.66 2 1 C-2.30769231 5.92307692 -2.30769231 5.92307692 -5.8125 6.3125 C-6.8953125 6.1578125 -6.8953125 6.1578125 -8 6 C-5.38485683 3.87961365 -2.80362384 1.86908256 0 0 Z " fill="#494848" transform="translate(962,732)"/>
<path d="M0 0 C0.33 0 0.66 0 1 0 C1.16682272 4.92127034 1.24828052 8.50343896 -1 13 C-1.33 13 -1.66 13 -2 13 C-2.19294408 8.17639811 -1.75747614 4.50353262 0 0 Z " fill="#7E7D7C" transform="translate(216,565)"/>
<path d="M0 0 C0.66 0.66 1.32 1.32 2 2 C0.71034824 3.37562854 -0.62689293 4.70766393 -2 6 C-2.66 6 -3.32 6 -4 6 C-4 6.66 -4 7.32 -4 8 C-4.66 7.67 -5.32 7.34 -6 7 C-4.02 4.69 -2.04 2.38 0 0 Z " fill="#CFCECF" transform="translate(823,502)"/>
<path d="M0 0 C-3.51187196 2.40814077 -5.72656908 3.36629408 -10 3 C-9 1 -9 1 -6.6875 -0.1875 C-3.88010429 -1.03624754 -2.698065 -0.99928333 0 0 Z " fill="#AAA9AA" transform="translate(440,753)"/>
<path d="M0 0 C0.66 0.99 1.32 1.98 2 3 C0.02 3.99 0.02 3.99 -2 5 C-2 5.99 -2 6.98 -2 8 C-2.66 8 -3.32 8 -4 8 C-2.87548273 5.0280615 -1.77706209 2.66559313 0 0 Z " fill="#B3B2B3" transform="translate(812,515)"/>
</svg>
